<svg xmlns="http://www.w3.org/2000/svg" width="1024" height="1024" viewBox="0 0 1024 1024">
  <defs>
    <linearGradient id="background" x1="80" y1="62" x2="940" y2="966" gradientUnits="userSpaceOnUse">
      <stop stop-color="#3CC2FF"/>
      <stop offset="0.48" stop-color="#1685FF"/>
      <stop offset="1" stop-color="#4355E8"/>
    </linearGradient>
    <path id="sPath" d="M274 742c116 90 416 63 468-96 42-130-114-153-234-141-158 16-264-50-216-175 54-142 283-140 358-70 18 10 25 24 50 15"/>
    <marker id="arrowHead" markerWidth="196" markerHeight="154" refX="2" refY="77" orient="auto" markerUnits="userSpaceOnUse" viewBox="0 0 196 154">
      <path d="m0 19 194 58L0 135Z" fill="#050609"/>
    </marker>
    <filter id="shadow" x="-30%" y="-30%" width="160%" height="170%">
      <feDropShadow dx="0" dy="28" stdDeviation="28" flood-color="#001849" flood-opacity="0.28"/>
    </filter>
  </defs>

  <rect width="1024" height="1024" fill="url(#background)"/>
  <circle cx="875" cy="118" r="270" fill="#FFFFFF" opacity="0.11"/>
  <circle cx="112" cy="908" r="300" fill="#7CE8FF" opacity="0.11"/>

  <g filter="url(#shadow)">
    <use href="#sPath" fill="none" stroke="#050609" stroke-width="116" stroke-linecap="butt" stroke-linejoin="round" marker-end="url(#arrowHead)"/>
    <circle cx="274" cy="742" r="58" fill="#050609"/>
  </g>

  <g fill="none" stroke="#F6F4EF" stroke-linecap="round" stroke-linejoin="round">
    <path d="M174 738c52-57 89 54 140 1s89-72 143-15 96 55 146 0 94-58 159-91" stroke-width="16"/>
    <path d="M238 510c51-59 91 53 143 1s91-68 144-12 91 49 143-1 91-46 153-19" stroke-width="15" opacity="0.96"/>
    <path d="M232 344c53-62 96 48 149-4s91-60 145-10 92-10 144-48 94-45 157-40" stroke-width="16"/>
    <path d="M188 752c57-42 92 39 145-5s87-51 137-8 91 41 139 1 86-44 139-79" stroke-width="6" opacity="0.55"/>
    <path d="M250 497c55-38 91 37 143-2s89-43 139-5 87 35 135-2 84-34 137-14" stroke-width="6" opacity="0.55"/>
    <path d="M246 332c55-41 92 35 146-4s89-39 138-5 86 10 133-35 88-38 139-43" stroke-width="6" opacity="0.55"/>
  </g>
</svg>
